# -----------------
# Start of obj file
o Box01
v -48.4496 41.1829 0.0
v 41.5504 41.1829 0.0
v -48.4496 141.183 0.0
v 41.5504 141.183 0.0
v -48.4496 41.1829 19.0
v 41.5504 41.1829 19.0
v -48.4496 141.183 19.0
v 41.5504 141.183 19.0

vt 0.0 0.0 0.0
vt 1.0 0.0 0.0
vt 0.0249042 1.0 0.0
vt 1.0 1.0 0.0
vt 0.725169 0.000884175 0.5
vt 0.1369 0.00279988 0.5
vt 0.729001 0.160035 0.5
vt 0.140731 0.161951 0.5
vt 0.0 0.0 0.0
vt 1.0 0.0 0.0
vt 0.0249042 1.0 0.0
vt 1.0 1.0 0.0
vt -0.00485841 0.207785 0.5
vt 0.767311 0.175218 0.5
vt -0.00294269 0.999111 0.5
vt 0.478038 0.997196 0.5
vt 0.139561 0.0284495 0.5
vt 0.812547 0.0284495 0.5
vt 0.139561 0.170784 0.5
vt 0.812547 0.170784 0.5
vt 0.729433 0.00236795 0.5
vt 0.136468 0.00236795 0.5
vt 0.729433 0.175793 0.5
vt 0.136468 0.175793 0.5

vn 0.0 0.0 -1.0
vn 0.0 0.0 -1.0
vn 0.0 0.0 1.0
vn 0.0 0.0 1.0
vn 0.0 -1.0 0.0
vn 0.0 -1.0 0.0
vn 1.0 0.0 0.0
vn 1.0 0.0 0.0
vn 0.0 1.0 0.0
vn 0.0 1.0 0.0
vn -1.0 0.0 0.0
vn -1.0 0.0 0.0

f 1/10/1 3/12/1 4/11/1
f 4/11/2 2/9/2 1/10/2
f 5/13/3 6/14/3 8/16/3
f 8/16/4 7/15/4 5/13/4
f 1/17/5 2/18/5 6/20/5
f 6/20/6 5/19/6 1/17/6
f 2/1/7 4/2/7 8/4/7
f 8/4/8 6/3/8 2/1/8
f 4/6/9 3/5/9 7/7/9
f 7/7/10 8/8/10 4/6/10
f 3/22/11 1/21/11 5/23/11
f 5/23/12 7/24/12 3/22/12

# end of obj file
# ---------------


