# -----------------
# Start of obj file
o H2
v 493.324 -1458.65 -315.177
v 493.324 -1383.38 -315.177
v 493.324 -1344.54 -238.157
v 493.324 -1042.76 -238.157
v 493.324 -872.57 -558.837
v 493.323 -124.934 -558.837
v 493.323 84.2032 -422.737
v 493.323 189.439 -235.813
v 493.323 476.4 -235.813
v 493.323 574.562 -444.181
v 493.323 714.759 -414.047
v 493.323 637.725 -77.4435
v 446.252 577.773 172.69
v 449.874 -748.737 152.318
v 493.324 -862.543 -77.4434
v 493.324 -1153.8 -102.269
v 493.324 -1437.92 -188.698
v -493.325 -1458.65 -315.177
v -493.325 -1383.38 -315.177
v -493.325 -1344.54 -238.157
v -493.325 -1042.76 -238.157
v -493.325 -872.57 -558.837
v -493.326 -124.935 -558.837
v -493.326 84.2029 -422.737
v -493.326 189.439 -235.813
v -493.326 476.4 -235.813
v -493.326 574.562 -444.181
v -493.326 714.758 -414.047
v -493.326 637.725 -77.4433
v -446.255 577.772 172.69
v -449.876 -748.738 152.318
v -493.325 -862.543 -77.4433
v -493.325 -1153.8 -102.269
v -493.325 -1437.92 -188.698
v 288.444 -1430.71 -215.914
v 288.444 -1388.07 -575.42
v 288.443 491.006 -575.42
v 288.443 523.332 -215.914
v -288.446 -1430.71 -215.914
v -288.443 -1388.07 -575.42
v -288.443 491.006 -575.42
v -288.443 523.332 -215.914
v 489.377 -816.973 5.72952
v 585.192 -737.554 5.72952
v 489.377 -759.844 5.72952
v 489.377 -816.973 -81.1476
v 585.192 -737.554 -81.1476
v 489.377 -759.844 -81.1476
v -489.377 -759.844 5.72952
v -489.377 -816.973 5.72952
v -585.192 -737.554 5.72954
v -489.377 -759.844 -81.1476
v -585.192 -737.554 -81.1476
v -489.377 -816.973 -81.1476
v 493.323 655.125 -319.881
v -493.326 655.125 -319.881
v -493.326 711.686 -325.355
v 493.323 711.687 -325.355
v 452.236 613.317 141.363
v -452.239 613.317 141.363
v 334.499 584.157 -486.845
v 334.499 717.329 -460.782
v -334.502 584.157 -486.845
v -334.502 717.329 -460.782
v 189.74 -1516.7 -315.177
v 189.74 -806.787 152.318
v 189.74 -920.593 -77.4434
v 189.74 -1211.85 -102.269
v 189.74 -1495.97 -188.698
v -189.74 -806.788 152.318
v -189.74 -920.593 -77.4433
v -189.74 -1211.85 -102.269
v -189.74 -1495.97 -188.698
v -189.74 -1516.7 -315.177
v 493.266 -1389.3 -327.477
v 493.266 -1457.96 -327.477
v 493.266 -1448.79 -412.539
v 493.266 -1380.14 -412.539
v -493.61 -1389.3 -327.477
v -493.61 -1457.96 -327.477
v -493.61 -1448.79 -412.539
v -493.61 -1380.14 -412.539
v 312.744 -1459.65 -478.894
v 312.744 -1390.99 -478.894
v -313.087 -1459.65 -478.894
v -313.087 -1390.99 -478.894
v 200.0 -1514.44 -327.477
v 200.0 -1505.28 -412.539
v 200.0 -1486.0 -478.894
v -200.0 -1514.44 -327.477
v -200.0 -1505.28 -412.539
v -200.0 -1486.0 -478.894
v 449.874 -748.737 152.318
v 189.74 -806.787 152.318
v 449.874 -748.737 152.318
v 189.74 -920.593 -77.4434
v 493.324 -862.543 -77.4434
v 189.74 -920.593 -77.4434
v 189.74 -1495.97 -188.698
v 189.74 -1516.7 -315.177
v 493.324 -1458.65 -315.177
v 493.324 -1458.65 -315.177
v 493.324 -1437.92 -188.698
v 189.74 -1495.97 -188.698
v 493.323 574.562 -444.181
v 493.323 574.562 -444.181
v 493.323 655.125 -319.881
v 493.323 574.562 -444.181
v 493.323 655.125 -319.881
v 493.323 637.725 -77.4435
v 493.324 -1437.92 -188.698
v 493.324 -1458.65 -315.177
v 493.324 -1383.38 -315.177
v 493.324 -1437.92 -188.698
v 493.324 -1383.38 -315.177
v 493.324 -1344.54 -238.157
v 493.324 -1153.8 -102.269
v 493.324 -1437.92 -188.698
v 493.324 -1344.54 -238.157
v 493.324 -1153.8 -102.269
v 493.324 -1344.54 -238.157
v 493.324 -1042.76 -238.157
v 493.324 -862.543 -77.4434
v 493.324 -1153.8 -102.269
v 493.324 -1042.76 -238.157
v 493.324 -862.543 -77.4434
v 493.324 -1042.76 -238.157
v 493.324 -872.57 -558.837
v 493.324 -862.543 -77.4434
v 493.324 -872.57 -558.837
v 493.323 -124.934 -558.837
v 493.324 -862.543 -77.4434
v 493.323 -124.934 -558.837
v 493.323 84.2032 -422.737
v 493.324 -862.543 -77.4434
v 493.323 84.2032 -422.737
v 493.323 189.439 -235.813
v 493.323 637.725 -77.4435
v 493.324 -862.543 -77.4434
v 493.323 189.439 -235.813
v 493.323 637.725 -77.4435
v 493.323 189.439 -235.813
v 493.323 476.4 -235.813
v 493.323 574.562 -444.181
v 493.323 637.725 -77.4435
v 493.323 476.4 -235.813
v 446.252 577.773 172.69
v 449.874 -748.737 152.318
v 493.324 -862.543 -77.4434
v 493.324 -862.543 -77.4434
v 493.323 637.725 -77.4435
v 452.236 613.317 141.363
v 446.252 577.773 172.69
v 493.324 -862.543 -77.4434
v 452.236 613.317 141.363
v -449.876 -748.738 152.318
v -446.255 577.772 172.69
v -446.255 577.772 172.69
v -452.239 613.317 141.363
v -452.239 613.317 141.363
v -493.326 637.725 -77.4433
v -493.325 -1383.38 -315.177
v -493.325 -1458.65 -315.177
v -493.326 574.562 -444.181
v -493.326 655.125 -319.881
v -493.326 574.562 -444.181
v -493.326 637.725 -77.4433
v -493.326 655.125 -319.881
v -493.326 574.562 -444.181
v -493.326 637.725 -77.4433
v -493.326 574.562 -444.181
v -493.326 476.4 -235.813
v -493.326 637.725 -77.4433
v -493.326 476.4 -235.813
v -493.326 189.439 -235.813
v -493.326 637.725 -77.4433
v -493.326 189.439 -235.813
v -493.326 189.439 -235.813
v -493.326 84.2029 -422.737
v -493.326 84.2029 -422.737
v -493.326 -124.935 -558.837
v -493.326 -124.935 -558.837
v -493.325 -872.57 -558.837
v -493.325 -872.57 -558.837
v -493.325 -1042.76 -238.157
v -493.325 -1042.76 -238.157
v -493.325 -1042.76 -238.157
v -493.325 -1344.54 -238.157
v -493.325 -1344.54 -238.157
v -493.325 -1383.38 -315.177
v -493.325 -1344.54 -238.157
v 288.444 -1388.07 -575.42
v 288.444 -1388.07 -575.42
v -288.443 -1388.07 -575.42
v 288.443 491.006 -575.42
v 288.443 491.006 -575.42
v -288.443 491.006 -575.42
v 288.443 523.332 -215.914
v 288.444 -1430.71 -215.914
v 288.444 -1388.07 -575.42
v 288.444 -1388.07 -575.42
v 288.443 491.006 -575.42
v 288.443 523.332 -215.914
v -288.443 -1388.07 -575.42
v -288.446 -1430.71 -215.914
v -288.443 523.332 -215.914
v -288.443 523.332 -215.914
v -288.443 491.006 -575.42
v -288.443 -1388.07 -575.42
v 489.377 -759.844 -81.1476
v 489.377 -759.844 5.72952
v 585.192 -737.554 5.72952
v 585.192 -737.554 5.72952
v 585.192 -737.554 -81.1476
v 489.377 -759.844 -81.1476
v -585.192 -737.554 5.72954
v -489.377 -759.844 5.72952
v -489.377 -759.844 -81.1476
v -489.377 -759.844 -81.1476
v -585.192 -737.554 -81.1476
v -585.192 -737.554 5.72954
v 493.323 711.687 -325.355
v 493.323 711.687 -325.355
v -493.326 711.686 -325.355
v -493.326 711.686 -325.355
v 493.323 711.687 -325.355
v 493.323 714.759 -414.047
v 493.323 714.759 -414.047
v -493.326 714.758 -414.047
v -493.326 711.686 -325.355
v -446.255 577.772 172.69
v -446.255 577.772 172.69
v 446.252 577.773 172.69
v -493.326 714.758 -414.047
v 334.499 717.329 -460.782
v -334.502 717.329 -460.782
v -493.326 714.758 -414.047
v -493.326 714.758 -414.047
v 493.323 714.759 -414.047
v 334.499 717.329 -460.782
v 493.323 714.759 -414.047
v 493.323 714.759 -414.047
v -189.74 -806.788 152.318
v 189.74 -806.787 152.318
v -189.74 -806.788 152.318
v -189.74 -920.593 -77.4433
v 189.74 -920.593 -77.4434
v -189.74 -920.593 -77.4433
v -189.74 -1495.97 -188.698
v -189.74 -1516.7 -315.177
v 189.74 -1516.7 -315.177
v 189.74 -1516.7 -315.177
v 189.74 -1495.97 -188.698
v -189.74 -1495.97 -188.698
v -449.876 -748.738 152.318
v -493.325 -862.543 -77.4433
v -189.74 -806.788 152.318
v -449.876 -748.738 152.318
v -493.325 -862.543 -77.4433
v -493.325 -1153.8 -102.269
v -189.74 -920.593 -77.4433
v -493.325 -862.543 -77.4433
v -493.325 -1153.8 -102.269
v -493.325 -1437.92 -188.698
v -493.325 -1153.8 -102.269
v -493.325 -1437.92 -188.698
v -493.325 -1458.65 -315.177
v -189.74 -1516.7 -315.177
v -189.74 -1516.7 -315.177
v -189.74 -1495.97 -188.698
v -493.325 -1437.92 -188.698

vt 0.958222 0.651978 0.0
vt 0.958222 0.63841 0.0
vt 0.958222 0.631809 0.0
vt 0.958222 0.584197 0.0
vt 0.958222 0.564644 0.0
vt 0.958222 0.401236 0.0
vt 0.958222 0.381684 0.0
vt 0.958222 0.364797 0.0
vt 0.958222 0.316805 0.0
vt 0.958222 0.306351 0.0
vt 0.999994 0.766149 0.0
vt 0.387237 0.158472 0.0
vt 0.424998 0.698663 0.0
vt 0.972271 0.698671 0.0
vt 0.376302 0.613992 0.0
vt 0.392773 0.537797 0.0
vt 0.392773 0.463941 0.0
vt 0.775692 0.65198 0.0
vt 0.775692 0.638412 0.0
vt 0.775692 0.631811 0.0
vt 0.775692 0.584198 0.0
vt 0.775692 0.564645 0.0
vt 0.775692 0.401238 0.0
vt 0.775692 0.381685 0.0
vt 0.775692 0.364799 0.0
vt 0.775692 0.316806 0.0
vt 0.775692 0.306353 0.0
vt 0.999994 0.766149 0.0
vt 0.0147812 0.158472 0.0
vt 0.425012 0.381029 0.0
vt 0.972285 0.381038 0.0
vt 0.4036 0.901302 0.0
vt 0.301236 0.892542 0.0
vt 0.194984 0.862046 0.0
vt 0.34558 0.334455 0.0
vt 0.317929 0.271606 0.0
vt 0.910073 0.309784 0.0
vt 0.910073 0.283807 0.0
vt 0.0498332 0.334456 0.0
vt 0.0774843 0.271606 0.0
vt 0.82384 0.309784 0.0
vt 0.82384 0.283807 0.0
vt 0.301191 0.545422 0.0
vt 0.336915 0.545422 0.0
vt 0.301191 0.545422 0.0
vt 0.301191 0.479358 0.0
vt 0.336915 0.479358 0.0
vt 0.301191 0.479358 0.0
vt 0.301191 0.545422 0.0
vt 0.301191 0.545422 0.0
vt 0.336915 0.545422 0.0
vt 0.301191 0.479358 0.0
vt 0.336915 0.479358 0.0
vt 0.301191 0.479358 0.0
vt 0.387237 0.0736865 0.0
vt 0.0147812 0.0736865 0.0
vt 0.997754 0.799628 0.0
vt 0.997754 0.799628 0.0
vt 0.372357 0.248642 0.0
vt 0.0296617 0.248642 0.0
vt 0.958222 0.306351 0.0
vt 0.958222 0.283873 0.0
vt 0.775692 0.306353 0.0
vt 0.775692 0.283875 0.0
vt 0.902059 0.651979 0.0
vt 0.988237 0.606837 0.0
vt 0.264516 0.608822 0.0
vt 0.273319 0.514862 0.0
vt 0.273319 0.441006 0.0
vt 0.988243 0.472872 0.0
vt 0.124783 0.608822 0.0
vt 0.124001 0.514862 0.0
vt 0.124001 0.441005 0.0
vt 0.831855 0.651979 0.0
vt 0.391526 0.381191 0.0
vt 0.391526 0.381191 0.0
vt 0.391526 0.353082 0.0
vt 0.391526 0.353082 0.0
vt 0.00631561 0.381191 0.0
vt 0.0063156 0.381191 0.0
vt 0.0063156 0.353082 0.0
vt 0.00631561 0.353082 0.0
vt 0.321062 0.331154 0.0
vt 0.321062 0.331154 0.0
vt 0.0767796 0.331154 0.0
vt 0.0767796 0.331154 0.0
vt 0.277055 0.381191 0.0
vt 0.277055 0.353082 0.0
vt 0.277055 0.331154 0.0
vt 0.120921 0.381191 0.0
vt 0.120921 0.353082 0.0
vt 0.120921 0.331154 0.0
vt 0.360303 0.70133 0.0
vt 0.264516 0.70133 0.0
vt 0.360303 0.70133 0.0
vt 0.273318 0.580561 0.0
vt 0.392772 0.603496 0.0
vt 0.273318 0.580561 0.0
vt 0.276065 0.433766 0.0
vt 0.276065 0.381636 0.0
vt 0.397894 0.382899 0.0
vt 0.397894 0.382899 0.0
vt 0.397894 0.428627 0.0
vt 0.276065 0.433766 0.0
vt 0.963949 0.748963 0.0
vt 0.963949 0.748963 0.0
vt 0.976602 0.80156 0.0
vt 0.963949 0.748963 0.0
vt 0.976602 0.80156 0.0
vt 0.974465 0.901301 0.0
vt 0.194984 0.862046 0.0
vt 0.187233 0.811739 0.0
vt 0.215381 0.811739 0.0
vt 0.194984 0.862046 0.0
vt 0.215381 0.811739 0.0
vt 0.229906 0.841755 0.0
vt 0.301236 0.892542 0.0
vt 0.194984 0.862046 0.0
vt 0.229906 0.841755 0.0
vt 0.301236 0.892542 0.0
vt 0.229906 0.841755 0.0
vt 0.342759 0.841755 0.0
vt 0.4036 0.901302 0.0
vt 0.301236 0.892542 0.0
vt 0.342759 0.841755 0.0
vt 0.4036 0.901302 0.0
vt 0.342759 0.841755 0.0
vt 0.406401 0.721504 0.0
vt 0.4036 0.901302 0.0
vt 0.406401 0.721504 0.0
vt 0.685985 0.721504 0.0
vt 0.4036 0.901302 0.0
vt 0.685985 0.721504 0.0
vt 0.764194 0.77182 0.0
vt 0.4036 0.901302 0.0
vt 0.764194 0.77182 0.0
vt 0.803548 0.842581 0.0
vt 0.974465 0.901301 0.0
vt 0.4036 0.901302 0.0
vt 0.803548 0.842581 0.0
vt 0.974465 0.901301 0.0
vt 0.803548 0.842581 0.0
vt 0.910859 0.842581 0.0
vt 0.963949 0.748963 0.0
vt 0.974465 0.901301 0.0
vt 0.910859 0.842581 0.0
vt 0.952046 0.986284 0.0
vt 0.446159 0.977332 0.0
vt 0.4036 0.901302 0.0
vt 0.4036 0.901302 0.0
vt 0.974465 0.901301 0.0
vt 0.965338 0.97523 0.0
vt 0.952046 0.986284 0.0
vt 0.4036 0.901302 0.0
vt 0.965338 0.97523 0.0
vt 0.446159 0.977332 0.0
vt 0.952046 0.986284 0.0
vt 0.952046 0.986284 0.0
vt 0.965338 0.975231 0.0
vt 0.965338 0.975231 0.0
vt 0.974465 0.901301 0.0
vt 0.215381 0.811739 0.0
vt 0.187233 0.811739 0.0
vt 0.963949 0.748964 0.0
vt 0.976602 0.80156 0.0
vt 0.963949 0.748964 0.0
vt 0.974465 0.901301 0.0
vt 0.976602 0.80156 0.0
vt 0.963949 0.748964 0.0
vt 0.974465 0.901301 0.0
vt 0.963949 0.748964 0.0
vt 0.910859 0.842581 0.0
vt 0.974465 0.901301 0.0
vt 0.910859 0.842581 0.0
vt 0.803548 0.842581 0.0
vt 0.974465 0.901301 0.0
vt 0.803548 0.842581 0.0
vt 0.803548 0.842581 0.0
vt 0.764194 0.77182 0.0
vt 0.764194 0.77182 0.0
vt 0.685985 0.721504 0.0
vt 0.685985 0.721504 0.0
vt 0.406401 0.721504 0.0
vt 0.406401 0.721504 0.0
vt 0.342759 0.841755 0.0
vt 0.342759 0.841755 0.0
vt 0.342759 0.841755 0.0
vt 0.229906 0.841755 0.0
vt 0.229906 0.841755 0.0
vt 0.215381 0.811739 0.0
vt 0.229906 0.841755 0.0
vt 0.920319 0.627227 0.0
vt 0.920319 0.627227 0.0
vt 0.813595 0.627228 0.0
vt 0.910073 0.326586 0.0
vt 0.910073 0.326586 0.0
vt 0.82384 0.326586 0.0
vt 0.774722 0.649864 0.0
vt 0.774721 0.283415 0.0
vt 0.819245 0.290735 0.0
vt 0.819245 0.290735 0.0
vt 0.819245 0.644333 0.0
vt 0.774722 0.649864 0.0
vt 0.819245 0.290735 0.0
vt 0.774721 0.283415 0.0
vt 0.774722 0.649864 0.0
vt 0.774722 0.649864 0.0
vt 0.819245 0.644333 0.0
vt 0.819245 0.290735 0.0
vt 0.474888 0.912178 0.0
vt 0.474888 0.940131 0.0
vt 0.527045 0.940131 0.0
vt 0.527045 0.940131 0.0
vt 0.527045 0.912178 0.0
vt 0.474888 0.912178 0.0
vt 0.527045 0.940131 0.0
vt 0.474888 0.940131 0.0
vt 0.474888 0.912178 0.0
vt 0.474888 0.912178 0.0
vt 0.527045 0.912178 0.0
vt 0.527045 0.940131 0.0
vt 0.396549 0.0630294 0.0
vt 0.396549 0.0630294 0.0
vt 0.00546983 0.0630294 0.0
vt 0.00546983 0.0630294 0.0
vt 0.396549 0.0630294 0.0
vt 0.396549 0.0264797 0.0
vt 0.396549 0.0264797 0.0
vt 0.00546983 0.0264798 0.0
vt 0.00546983 0.0630294 0.0
vt 0.0318289 0.261552 0.0
vt 0.0318289 0.261552 0.0
vt 0.37019 0.261552 0.0
vt 0.775692 0.283875 0.0
vt 0.326356 0.000499506 0.0
vt 0.0840637 0.000499599 0.0
vt 0.00546983 0.0264798 0.0
vt 0.00546983 0.0264798 0.0
vt 0.396549 0.0264797 0.0
vt 0.326356 0.000499506 0.0
vt 0.958222 0.283873 0.0
vt 0.958222 0.283873 0.0
vt 0.124783 0.70133 0.0
vt 0.264516 0.70133 0.0
vt 0.124783 0.70133 0.0
vt 0.124 0.580561 0.0
vt 0.273318 0.580561 0.0
vt 0.124 0.580561 0.0
vt 0.123779 0.433766 0.0
vt 0.123779 0.381636 0.0
vt 0.276065 0.381636 0.0
vt 0.276065 0.381636 0.0
vt 0.276065 0.433766 0.0
vt 0.123779 0.433766 0.0
vt 0.028995 0.70133 0.0
vt 0.0129961 0.613992 0.0
vt 0.124783 0.70133 0.0
vt 0.028995 0.70133 0.0
vt 0.00454576 0.603496 0.0
vt 0.00454638 0.537796 0.0
vt 0.124 0.580561 0.0
vt 0.00454576 0.603496 0.0
vt 0.00454638 0.537796 0.0
vt 0.00454703 0.46394 0.0
vt 0.00454638 0.537796 0.0
vt 0.00194963 0.428627 0.0
vt 0.00194963 0.382899 0.0
vt 0.123779 0.381636 0.0
vt 0.123779 0.381636 0.0
vt 0.123779 0.433766 0.0
vt 0.00194963 0.428627 0.0

vn -2.01048e-007 0.0 -1.0
vn -1.60839e-007 0.0 -1.0
vn -1.89994e-007 0.0 -1.0
vn 0.0 1.2163e-006 -1.0
vn -3.25394e-007 0.892895 -0.450264
vn -3.73193e-007 0.892895 -0.450265
vn -1.54653e-007 0.0 -1.0
vn -2.31979e-007 -3.03374e-007 -1.0
vn 2.15215e-007 -0.883313 -0.468783
vn 3.64643e-007 -0.883313 -0.468783
vn -1.23722e-007 0.0 -1.0
vn -1.23722e-007 0.0 -1.0
vn -3.06147e-007 0.54544 -0.83815
vn -3.39888e-007 0.54544 -0.83815
vn -3.99302e-007 0.871395 -0.490583
vn -3.84128e-007 0.871395 -0.490583
vn -1.54653e-007 0.0 -1.0
vn -1.54653e-007 0.0 -1.0
vn 2.30318e-007 -0.904641 -0.426175
vn 2.69863e-007 -0.904641 -0.426175
vn -4.28229e-007 0.192065 -0.981382
vn -3.83462e-007 0.192065 -0.981382
vn -3.59143e-007 0.997434 0.0715856
vn -3.72428e-007 0.997434 0.0715856
vn -5.17819e-007 0.993836 0.110864
vn -3.51733e-007 0.993836 0.110864
vn -0.00342442 -0.0153462 0.999876
vn 1.78996e-007 -0.014712 0.999892
vn 2.48331e-007 -0.014712 0.999892
vn 0.00342469 -0.0153462 0.999876
vn 0.196086 -0.878702 0.435238
vn 0.166493 -0.870707 0.462763
vn 0.0162377 -0.0849176 0.996256
vn 0.0162377 -0.0849176 0.996256
vn 0.0555625 -0.290575 0.955238
vn 0.0555625 -0.290575 0.955238
vn 0.185426 -0.969724 0.158911
vn 0.185426 -0.969724 0.158912
vn 1.0 1.0111e-006 -6.5315e-007
vn 1.0 0.0 4.62044e-007
vn 1.0 6.82082e-007 0.0
vn 1.0 0.0 -4.8257e-007
vn 1.0 5.15825e-007 -2.60117e-007
vn 1.0 5.11335e-007 -2.68595e-007
vn 1.0 4.04498e-007 0.0
vn 1.0 4.27622e-007 0.0
vn 1.0 3.4509e-007 0.0
vn 1.0 3.67369e-007 0.0
vn 1.0 3.32045e-007 0.0
vn 1.0 2.94173e-007 -1.65615e-007
vn 1.0 3.45804e-007 1.77346e-007
vn 1.0 2.12695e-007 5.5413e-007
vn 1.0 7.14017e-007 0.0
vn 0.98257 -0.000171897 0.185895
vn 0.982823 3.44557e-007 0.184551
vn 0.982324 -0.000404434 0.187187
vn -0.98257 -0.000172586 0.185895
vn -0.982324 -0.000404904 0.187187
vn -0.982823 -3.35172e-007 0.184552
vn -1.0 -8.10866e-007 6.15448e-007
vn -1.0 -2.16069e-007 0.0
vn -1.0 0.0 -2.31023e-007
vn -1.0 -3.41041e-007 0.0
vn -1.0 -5.84669e-007 0.0
vn -1.0 -2.12695e-007 -3.61432e-007
vn -1.0 -3.45804e-007 0.0
vn -1.0 -3.20916e-007 1.80671e-007
vn -1.0 -3.52702e-007 0.0
vn -1.0 -4.08188e-007 0.0
vn -1.0 -3.4509e-007 0.0
vn -1.0 -3.11769e-007 0.0
vn -1.0 0.0 1.41947e-007
vn -1.0 -7.49775e-007 1.05245e-006
vn -1.0 -1.03165e-006 5.20234e-007
vn 0.0 -0.993038 -0.117791
vn 0.0 -0.993038 -0.117791
vn -2.11602e-007 0.0 -1.0
vn 0.0 0.0 -1.0
vn 0.0 0.995982 -0.0895566
vn 4.02553e-007 0.995982 -0.0895559
vn 1.0 4.21677e-007 -1.19757e-007
vn 1.0 4.54741e-007 -2.95552e-007
vn -1.0 1.45244e-006 -7.80713e-006
vn -1.0 0.0 0.0
vn 0.0 0.0 1.0
vn -3.01014e-007 2.67094e-007 -1.0
vn 0.638158 -0.769906 0.0
vn 0.638158 -0.769906 0.0
vn -0.226585 0.973991 0.0
vn -0.226585 0.973991 0.0
vn -1.0 0.0 0.0
vn -1.0 0.0 0.0
vn 1.59253e-007 0.0 1.0
vn 0.0 2.67094e-007 -1.0
vn -0.638158 -0.769906 0.0
vn -0.638158 -0.769906 0.0
vn 0.226585 0.973991 0.0
vn 0.226585 0.973991 0.0
vn 1.0 0.0 0.0
vn 1.0 0.0 0.0
vn 0.0 0.0963402 0.995348
vn 0.0 0.0963395 0.995349
vn -2.47296e-007 0.999401 0.0346149
vn -2.39801e-007 0.999401 0.0346149
vn -2.30384e-007 0.661197 0.750212
vn -2.33474e-007 0.661197 0.750212
vn 2.85977e-007 -0.975631 -0.219416
vn 3.07828e-007 -0.975631 -0.219417
vn -0.265361 0.185179 -0.946199
vn -0.279488 0.201767 -0.93871
vn -3.4434e-007 0.998491 0.0549185
vn -2.3518e-007 0.998491 0.0549204
vn 0.280196 0.184371 -0.942071
vn 0.265446 0.202603 -0.942598
vn 2.15516e-007 -0.896099 0.443854
vn 5.39466e-007 -0.896099 0.443855
vn 1.87577e-007 -0.0849288 0.996387
vn 1.73918e-007 -0.0849288 0.996387
vn 2.09024e-007 -0.291024 0.956716
vn 2.47493e-007 -0.291024 0.956716
vn 6.60897e-007 -0.986837 0.161716
vn 3.36951e-007 -0.986837 0.161715
vn -0.166491 -0.870707 0.462763
vn -0.196084 -0.878703 0.435238
vn -0.0162373 -0.0849176 0.996256
vn -0.0162372 -0.0849176 0.996256
vn -0.0555616 -0.290575 0.955238
vn -0.0555618 -0.290575 0.955238
vn -0.185425 -0.969724 0.15891
vn -0.185424 -0.969724 0.158912
vn 1.23694e-007 0.0 1.0
vn 0.0 4.72195e-007 1.0
vn 2.28882e-007 -2.9251e-007 1.0
vn 2.93735e-007 -4.44489e-007 1.0
vn 0.188084 -0.976501 -0.105219
vn 0.188084 -0.976501 -0.10522
vn 0.0 0.0 -1.0
vn -2.28882e-007 -2.72433e-007 -1.0
vn -4.58516e-007 -1.51255e-006 -1.0
vn -2.9258e-007 0.0 -1.0
vn 1.0 0.0 0.0
vn 1.0 0.0 0.0
vn -1.0 0.0 0.0
vn -1.0 0.0 0.0
vn 0.219 -0.936977 -0.272237
vn 0.178297 -0.925689 -0.333632
vn 0.345003 0.0 -0.938602
vn 0.345003 0.0 -0.938602
vn 1.45259e-007 0.986882 -0.161445
vn 0.0 0.986882 -0.161446
vn -0.345003 0.0 -0.938602
vn -0.345003 0.0 -0.938602
vn 2.78899e-007 -0.994245 -0.10713
vn 0.0 -0.994245 -0.107131
vn 0.0 -0.960288 -0.279012
vn 2.29196e-007 -0.960288 -0.27901
vn -0.187871 -0.976541 -0.105225
vn -0.187871 -0.976541 -0.105222
vn -0.178129 -0.925898 -0.333141
vn -0.218365 -0.937113 -0.272278

f 74/74/1 18/18/1 19/19/1
f 65/65/2 74/74/2 19/19/2
f 1/1/3 65/65/3 19/19/3
f 1/1/4 19/19/4 2/2/4
f 20/20/5 3/3/5 2/2/5
f 2/2/6 19/19/6 20/20/6
f 21/21/7 4/4/7 3/3/7
f 3/3/8 20/20/8 21/21/8
f 22/22/9 5/5/9 4/4/9
f 4/4/10 21/21/10 22/22/10
f 23/23/11 6/6/11 5/5/11
f 5/5/12 22/22/12 23/23/12
f 24/24/13 7/7/13 6/6/13
f 6/6/14 23/23/14 24/24/14
f 25/25/15 8/8/15 7/7/15
f 7/7/16 24/24/16 25/25/16
f 26/26/17 9/9/17 8/8/17
f 8/8/18 25/25/18 26/26/18
f 27/27/19 10/10/19 9/9/19
f 9/9/20 26/26/20 27/27/20
f 64/64/21 62/62/21 61/61/21
f 61/61/22 63/63/22 64/64/22
f 29/29/23 12/12/23 55/55/23
f 55/55/24 56/56/24 29/29/24
f 60/60/25 59/59/25 12/12/25
f 12/12/26 29/29/26 60/60/26
f 70/70/27 30/30/27 31/31/27
f 13/13/28 30/30/28 70/70/28
f 13/13/29 70/70/29 66/66/29
f 13/13/30 66/66/30 14/14/30
f 93/93/31 94/94/31 67/67/31
f 67/67/32 15/15/32 95/95/32
f 96/96/33 68/68/33 16/16/33
f 16/16/34 97/97/34 98/98/34
f 68/68/35 69/69/35 17/17/35
f 17/17/36 16/16/36 68/68/36
f 99/99/37 100/100/37 101/101/37
f 102/102/38 103/103/38 104/104/38
f 105/105/39 11/11/39 58/58/39
f 106/106/40 58/58/40 107/107/40
f 108/108/41 109/109/41 110/110/41
f 111/111/42 112/112/42 113/113/42
f 114/114/43 115/115/43 116/116/43
f 117/117/44 118/118/44 119/119/44
f 120/120/45 121/121/45 122/122/45
f 123/123/46 124/124/46 125/125/46
f 126/126/47 127/127/47 128/128/47
f 129/129/48 130/130/48 131/131/48
f 132/132/49 133/133/49 134/134/49
f 135/135/50 136/136/50 137/137/50
f 138/138/51 139/139/51 140/140/51
f 141/141/52 142/142/52 143/143/52
f 144/144/53 145/145/53 146/146/53
f 147/147/54 148/148/54 149/149/54
f 150/150/55 151/151/55 152/152/55
f 153/153/56 154/154/56 155/155/56
f 32/32/57 156/156/57 157/157/57
f 32/32/58 158/158/58 159/159/58
f 32/32/59 160/160/59 161/161/59
f 162/162/60 163/163/60 34/34/60
f 57/57/61 28/28/61 164/164/61
f 165/165/62 57/57/62 166/166/62
f 167/167/63 168/168/63 169/169/63
f 170/170/64 171/171/64 172/172/64
f 173/173/65 174/174/65 175/175/65
f 32/32/66 176/176/66 177/177/66
f 32/32/67 178/178/67 179/179/67
f 32/32/68 180/180/68 181/181/68
f 32/32/69 182/182/69 183/183/69
f 32/32/70 184/184/70 185/185/70
f 33/33/71 32/32/71 186/186/71
f 33/33/72 187/187/72 188/188/72
f 34/34/73 33/33/73 189/189/73
f 190/190/74 34/34/74 191/191/74
f 40/40/75 36/36/75 35/35/75
f 35/35/76 39/39/76 40/40/76
f 41/41/77 37/37/77 192/192/77
f 193/193/78 194/194/78 41/41/78
f 42/42/79 38/38/79 195/195/79
f 196/196/80 197/197/80 42/42/80
f 198/198/81 199/199/81 200/200/81
f 201/201/82 202/202/82 203/203/82
f 204/204/83 205/205/83 206/206/83
f 207/207/84 208/208/84 209/209/84
f 45/45/85 43/43/85 44/44/85
f 48/48/86 47/47/86 46/46/86
f 47/47/87 44/44/87 43/43/87
f 43/43/88 46/46/88 47/47/88
f 210/210/89 211/211/89 212/212/89
f 213/213/90 214/214/90 215/215/90
f 46/46/91 43/43/91 45/45/91
f 45/45/92 48/48/92 46/46/92
f 50/50/93 49/49/93 51/51/93
f 53/53/94 52/52/94 54/54/94
f 50/50/95 51/51/95 53/53/95
f 53/53/96 54/54/96 50/50/96
f 216/216/97 217/217/97 218/218/97
f 219/219/98 220/220/98 221/221/98
f 49/49/99 50/50/99 54/54/99
f 54/54/100 52/52/100 49/49/100
f 56/56/101 55/55/101 222/222/101
f 223/223/102 224/224/102 56/56/102
f 225/225/103 226/226/103 227/227/103
f 228/228/104 229/229/104 230/230/104
f 59/59/105 60/60/105 231/231/105
f 232/232/106 233/233/106 59/59/106
f 63/63/107 61/61/107 10/10/107
f 10/10/108 27/27/108 63/63/108
f 64/64/109 63/63/109 27/27/109
f 27/27/110 234/234/110 64/64/110
f 235/235/111 236/236/111 237/237/111
f 238/238/112 239/239/112 240/240/112
f 61/61/113 62/62/113 241/241/113
f 242/242/114 10/10/114 61/61/114
f 243/243/115 71/71/115 67/67/115
f 67/67/116 244/244/116 245/245/116
f 246/246/117 72/72/117 68/68/117
f 68/68/118 247/247/118 248/248/118
f 72/72/119 73/73/119 69/69/119
f 69/69/120 68/68/120 72/72/120
f 249/249/121 250/250/121 251/251/121
f 252/252/122 253/253/122 254/254/122
f 255/255/123 256/256/123 71/71/123
f 71/71/124 257/257/124 258/258/124
f 259/259/125 260/260/125 72/72/125
f 72/72/126 261/261/126 262/262/126
f 263/263/127 264/264/127 73/73/127
f 73/73/128 72/72/128 265/265/128
f 266/266/129 267/267/129 268/268/129
f 269/269/130 270/270/130 271/271/130
f 75/75/131 79/79/131 80/80/131
f 75/75/132 80/80/132 90/90/132
f 75/75/133 90/90/133 87/87/133
f 76/76/134 75/75/134 87/87/134
f 76/76/135 87/87/135 88/88/135
f 88/88/136 77/77/136 76/76/136
f 92/92/137 85/85/137 86/86/137
f 89/89/138 92/92/138 86/86/138
f 83/83/139 89/89/139 86/86/139
f 84/84/140 83/83/140 86/86/140
f 76/76/141 77/77/141 78/78/141
f 78/78/142 75/75/142 76/76/142
f 82/82/143 81/81/143 80/80/143
f 80/80/144 79/79/144 82/82/144
f 88/88/145 89/89/145 83/83/145
f 83/83/146 77/77/146 88/88/146
f 83/83/147 84/84/147 78/78/147
f 78/78/148 77/77/148 83/83/148
f 84/84/149 86/86/149 82/82/149
f 82/82/150 78/78/150 84/84/150
f 86/86/151 85/85/151 81/81/151
f 81/81/152 82/82/152 86/86/152
f 90/90/153 91/91/153 88/88/153
f 88/88/154 87/87/154 90/90/154
f 91/91/155 92/92/155 89/89/155
f 89/89/156 88/88/156 91/91/156
f 80/80/157 81/81/157 91/91/157
f 91/91/158 90/90/158 80/80/158
f 91/91/159 81/81/159 85/85/159
f 85/85/160 92/92/160 91/91/160

# end of obj file
# ---------------


