o Tree04
v -23.8317 4.76862 10.0
v -28.8317 4.76862 10.0
v -28.8317 4.76862 0.0
v -23.8317 4.76862 0.0
v -26.3317 7.26862 10.0
v -26.3317 2.26862 10.0
v -26.3317 2.26862 4.76837e-007
v -26.3317 7.26862 4.76837e-007

vt 0.999501 0.9995 0.5
vt 0.000499964 0.999501 0.5
vt 0.000499517 0.000499606 0.5
vt 0.9995 0.000499487 0.5
vt 0.999501 0.9995 0.5
vt 0.000499964 0.999501 0.5
vt 0.000499517 0.000499606 0.5
vt 0.9995 0.000499487 0.5

vn 0.0 -1.0 0.0
vn 0.0 -1.0 0.0
vn 1.0 0.0 0.0
vn 1.0 0.0 0.0

f 1/1/1 2/2/1 3/3/1
f 3/3/2 4/4/2 1/1/2
f 5/5/3 6/6/3 7/7/3
f 7/7/4 8/8/4 5/5/4

o Tree19
v -15.3502 -11.6064 10.0
v -20.3502 -11.6064 10.0
v -20.3502 -11.6064 0.0
v -15.3502 -11.6064 0.0
v -17.8502 -9.10643 10.0
v -17.8502 -14.1064 10.0
v -17.8502 -14.1064 4.76837e-007
v -17.8502 -9.10643 4.76837e-007

vt 0.999501 0.9995 0.5
vt 0.000499964 0.999501 0.5
vt 0.000499517 0.000499606 0.5
vt 0.9995 0.000499487 0.5
vt 0.999501 0.9995 0.5
vt 0.000499964 0.999501 0.5
vt 0.000499517 0.000499606 0.5
vt 0.9995 0.000499487 0.5

vn 0.0 -1.0 0.0
vn 0.0 -1.0 0.0
vn 1.0 0.0 0.0
vn 1.0 0.0 0.0

f 9/9/5 10/10/5 11/11/5
f 11/11/6 12/12/6 9/9/6
f 13/13/7 14/14/7 15/15/7
f 15/15/8 16/16/8 13/13/8

o Tree29
v 10.0802 -34.8848 10.0
v 5.08023 -34.8848 10.0
v 5.08023 -34.8848 0.0
v 10.0802 -34.8848 0.0
v 7.58023 -32.3848 10.0
v 7.58023 -37.3848 10.0
v 7.58023 -37.3848 4.76837e-007
v 7.58023 -32.3848 4.76837e-007

vt 0.999501 0.9995 0.5
vt 0.000499964 0.999501 0.5
vt 0.000499517 0.000499606 0.5
vt 0.9995 0.000499487 0.5
vt 0.999501 0.9995 0.5
vt 0.000499964 0.999501 0.5
vt 0.000499517 0.000499606 0.5
vt 0.9995 0.000499487 0.5

vn 0.0 -1.0 0.0
vn 0.0 -1.0 0.0
vn 1.0 0.0 0.0
vn 1.0 0.0 0.0

f 17/17/9 18/18/9 19/19/9
f 19/19/10 20/20/10 17/17/10
f 21/21/11 22/22/11 23/23/11
f 23/23/12 24/24/12 21/21/12

o Tree46
v 18.444 -12.6603 10.0
v 13.444 -12.6603 10.0
v 13.444 -12.6603 0.0
v 18.444 -12.6603 0.0
v 15.944 -10.1603 10.0
v 15.944 -15.1603 10.0
v 15.944 -15.1603 4.76837e-007
v 15.944 -10.1603 4.76837e-007

vt 0.999501 0.9995 0.5
vt 0.000499964 0.999501 0.5
vt 0.000499517 0.000499606 0.5
vt 0.9995 0.000499487 0.5
vt 0.999501 0.9995 0.5
vt 0.000499964 0.999501 0.5
vt 0.000499517 0.000499606 0.5
vt 0.9995 0.000499487 0.5

vn 0.0 -1.0 0.0
vn 0.0 -1.0 0.0
vn 1.0 0.0 0.0
vn 1.0 0.0 0.0

f 25/25/13 26/26/13 27/27/13
f 27/27/14 28/28/14 25/25/14
f 29/29/15 30/30/15 31/31/15
f 31/31/16 32/32/16 29/29/16

o Tree53
v -16.9017 -25.9512 10.0
v -21.9017 -25.9512 10.0
v -21.9017 -25.9512 0.0
v -16.9017 -25.9512 0.0
v -19.4017 -23.4512 10.0
v -19.4017 -28.4512 10.0
v -19.4017 -28.4512 4.76837e-007
v -19.4017 -23.4512 4.76837e-007

vt 0.999501 0.9995 0.5
vt 0.000499964 0.999501 0.5
vt 0.000499517 0.000499606 0.5
vt 0.9995 0.000499487 0.5
vt 0.999501 0.9995 0.5
vt 0.000499964 0.999501 0.5
vt 0.000499517 0.000499606 0.5
vt 0.9995 0.000499487 0.5

vn 0.0 -1.0 0.0
vn 0.0 -1.0 0.0
vn 1.0 0.0 0.0
vn 1.0 0.0 0.0

f 33/33/17 34/34/17 35/35/17
f 35/35/18 36/36/18 33/33/18
f 37/37/19 38/38/19 39/39/19
f 39/39/20 40/40/20 37/37/20

o Tree55
v -28.3888 -6.12928 10.0
v -33.3888 -6.12928 10.0
v -33.3888 -6.12928 0.0
v -28.3888 -6.12928 0.0
v -30.8888 -3.62928 10.0
v -30.8888 -8.62928 10.0
v -30.8888 -8.62928 4.76837e-007
v -30.8888 -3.62928 4.76837e-007

vt 0.999501 0.9995 0.5
vt 0.000499964 0.999501 0.5
vt 0.000499517 0.000499606 0.5
vt 0.9995 0.000499487 0.5
vt 0.999501 0.9995 0.5
vt 0.000499964 0.999501 0.5
vt 0.000499517 0.000499606 0.5
vt 0.9995 0.000499487 0.5

vn 0.0 -1.0 0.0
vn 0.0 -1.0 0.0
vn 1.0 0.0 0.0
vn 1.0 0.0 0.0

f 41/41/21 42/42/21 43/43/21
f 43/43/22 44/44/22 41/41/22
f 45/45/23 46/46/23 47/47/23
f 47/47/24 48/48/24 45/45/24

o Tree75
v 3.92043 -3.94586 10.0
v -1.07957 -3.94586 10.0
v -1.07957 -3.94586 0.0
v 3.92043 -3.94586 0.0
v 1.42044 -1.44586 10.0
v 1.42043 -6.44586 10.0
v 1.42043 -6.44586 4.76837e-007
v 1.42044 -1.44586 4.76837e-007

vt 0.999501 0.9995 0.5
vt 0.000499964 0.999501 0.5
vt 0.000499517 0.000499606 0.5
vt 0.9995 0.000499487 0.5
vt 0.999501 0.9995 0.5
vt 0.000499964 0.999501 0.5
vt 0.000499517 0.000499606 0.5
vt 0.9995 0.000499487 0.5

vn 0.0 -1.0 0.0
vn 0.0 -1.0 0.0
vn 1.0 0.0 0.0
vn 1.0 0.0 0.0

f 49/49/25 50/50/25 51/51/25
f 51/51/26 52/52/26 49/49/26
f 53/53/27 54/54/27 55/55/27
f 55/55/28 56/56/28 53/53/28

o Tree84
v 8.33067 27.0287 10.0
v 3.33067 27.0287 10.0
v 3.33067 27.0287 0.0
v 8.33067 27.0287 0.0
v 5.83067 29.5287 10.0
v 5.83067 24.5287 10.0
v 5.83067 24.5287 4.76837e-007
v 5.83067 29.5287 4.76837e-007

vt 0.999501 0.9995 0.5
vt 0.000499964 0.999501 0.5
vt 0.000499517 0.000499606 0.5
vt 0.9995 0.000499487 0.5
vt 0.999501 0.9995 0.5
vt 0.000499964 0.999501 0.5
vt 0.000499517 0.000499606 0.5
vt 0.9995 0.000499487 0.5

vn 0.0 -1.0 0.0
vn 0.0 -1.0 0.0
vn 1.0 0.0 0.0
vn 1.0 0.0 0.0

f 57/57/29 58/58/29 59/59/29
f 59/59/30 60/60/30 57/57/30
f 61/61/31 62/62/31 63/63/31
f 63/63/32 64/64/32 61/61/32

o Tree85
v 17.3908 4.76862 10.0
v 12.3908 4.76862 10.0
v 12.3908 4.76862 0.0
v 17.3908 4.76862 0.0
v 14.8908 7.26862 10.0
v 14.8908 2.26862 10.0
v 14.8908 2.26862 4.76837e-007
v 14.8908 7.26862 4.76837e-007

vt 0.999501 0.9995 0.5
vt 0.000499964 0.999501 0.5
vt 0.000499517 0.000499606 0.5
vt 0.9995 0.000499487 0.5
vt 0.999501 0.9995 0.5
vt 0.000499964 0.999501 0.5
vt 0.000499517 0.000499606 0.5
vt 0.9995 0.000499487 0.5

vn 0.0 -1.0 0.0
vn 0.0 -1.0 0.0
vn 1.0 0.0 0.0
vn 1.0 0.0 0.0

f 65/65/33 66/66/33 67/67/33
f 67/67/34 68/68/34 65/65/34
f 69/69/35 70/70/35 71/71/35
f 71/71/36 72/72/36 69/69/36

o Tree90
v 23.6735 17.4868 10.0
v 18.6735 17.4868 10.0
v 18.6735 17.4868 0.0
v 23.6735 17.4868 0.0
v 21.1735 19.9868 10.0
v 21.1735 14.9868 10.0
v 21.1735 14.9868 4.76837e-007
v 21.1735 19.9868 4.76837e-007

vt 0.999501 0.9995 0.5
vt 0.000499964 0.999501 0.5
vt 0.000499517 0.000499606 0.5
vt 0.9995 0.000499487 0.5
vt 0.999501 0.9995 0.5
vt 0.000499964 0.999501 0.5
vt 0.000499517 0.000499606 0.5
vt 0.9995 0.000499487 0.5

vn 0.0 -1.0 0.0
vn 0.0 -1.0 0.0
vn 1.0 0.0 0.0
vn 1.0 0.0 0.0

f 73/73/37 74/74/37 75/75/37
f 75/75/38 76/76/38 73/73/38
f 77/77/39 78/78/39 79/79/39
f 79/79/40 80/80/40 77/77/40

o Tree100
v -10.6945 3.84505 10.0
v -15.6945 3.84505 10.0
v -15.6945 3.84505 0.0
v -10.6945 3.84505 0.0
v -13.1945 6.34505 10.0
v -13.1945 1.34505 10.0
v -13.1945 1.34505 4.76837e-007
v -13.1945 6.34505 4.76837e-007

vt 0.999501 0.9995 0.5
vt 0.000499964 0.999501 0.5
vt 0.000499517 0.000499606 0.5
vt 0.9995 0.000499487 0.5
vt 0.999501 0.9995 0.5
vt 0.000499964 0.999501 0.5
vt 0.000499517 0.000499606 0.5
vt 0.9995 0.000499487 0.5

vn 0.0 -1.0 0.0
vn 0.0 -1.0 0.0
vn 1.0 0.0 0.0
vn 1.0 0.0 0.0

f 81/81/41 82/82/41 83/83/41
f 83/83/42 84/84/42 81/81/42
f 85/85/43 86/86/43 87/87/43
f 87/87/44 88/88/44 85/85/44

o Tree109
v 23.3895 -22.2562 10.0
v 18.3895 -22.2562 10.0
v 18.3895 -22.2562 0.0
v 23.3895 -22.2562 0.0
v 20.8895 -19.7562 10.0
v 20.8895 -24.7562 10.0
v 20.8895 -24.7562 4.76837e-007
v 20.8895 -19.7562 4.76837e-007

vt 0.999501 0.9995 0.5
vt 0.000499964 0.999501 0.5
vt 0.000499517 0.000499606 0.5
vt 0.9995 0.000499487 0.5
vt 0.999501 0.9995 0.5
vt 0.000499964 0.999501 0.5
vt 0.000499517 0.000499606 0.5
vt 0.9995 0.000499487 0.5

vn 0.0 -1.0 0.0
vn 0.0 -1.0 0.0
vn 1.0 0.0 0.0
vn 1.0 0.0 0.0

f 89/89/45 90/90/45 91/91/45
f 91/91/46 92/92/46 89/89/46
f 93/93/47 94/94/47 95/95/47
f 95/95/48 96/96/48 93/93/48

o Tree110
v -1.57381 -25.9512 10.0
v -6.57381 -25.9512 10.0
v -6.57381 -25.9512 0.0
v -1.57381 -25.9512 0.0
v -4.07381 -23.4512 10.0
v -4.07381 -28.4512 10.0
v -4.07381 -28.4512 4.76837e-007
v -4.07381 -23.4512 4.76837e-007

vt 0.999501 0.9995 0.5
vt 0.000499964 0.999501 0.5
vt 0.000499517 0.000499606 0.5
vt 0.9995 0.000499487 0.5
vt 0.999501 0.9995 0.5
vt 0.000499964 0.999501 0.5
vt 0.000499517 0.000499606 0.5
vt 0.9995 0.000499487 0.5

vn 0.0 -1.0 0.0
vn 0.0 -1.0 0.0
vn 1.0 0.0 0.0
vn 1.0 0.0 0.0

f 97/97/49 98/98/49 99/99/49
f 99/99/50 100/100/50 97/97/50
f 101/101/51 102/102/51 103/103/51
f 103/103/52 104/104/52 101/101/52

o Tree112
v -5.87725 -15.6968 10.0
v -10.8772 -15.6968 10.0
v -10.8772 -15.6968 0.0
v -5.87725 -15.6968 0.0
v -8.37725 -13.1968 10.0
v -8.37725 -18.1968 10.0
v -8.37725 -18.1968 4.76837e-007
v -8.37725 -13.1968 4.76837e-007

vt 0.999501 0.9995 0.5
vt 0.000499964 0.999501 0.5
vt 0.000499517 0.000499606 0.5
vt 0.9995 0.000499487 0.5
vt 0.999501 0.9995 0.5
vt 0.000499964 0.999501 0.5
vt 0.000499517 0.000499606 0.5
vt 0.9995 0.000499487 0.5

vn 0.0 -1.0 0.0
vn 0.0 -1.0 0.0
vn 1.0 0.0 0.0
vn 1.0 0.0 0.0

f 105/105/53 106/106/53 107/107/53
f 107/107/54 108/108/54 105/105/54
f 109/109/55 110/110/55 111/111/55
f 111/111/56 112/112/56 109/109/56

o Tree114
v -5.89344 24.0966 10.0
v -10.8934 24.0966 10.0
v -10.8934 24.0966 0.0
v -5.89344 24.0966 0.0
v -8.39344 26.5966 10.0
v -8.39344 21.5966 10.0
v -8.39344 21.5966 4.76837e-007
v -8.39344 26.5966 4.76837e-007

vt 0.999501 0.9995 0.5
vt 0.000499964 0.999501 0.5
vt 0.000499517 0.000499606 0.5
vt 0.9995 0.000499487 0.5
vt 0.999501 0.9995 0.5
vt 0.000499964 0.999501 0.5
vt 0.000499517 0.000499606 0.5
vt 0.9995 0.000499487 0.5

vn 0.0 -1.0 0.0
vn 0.0 -1.0 0.0
vn 1.0 0.0 0.0
vn 1.0 0.0 0.0

f 113/113/57 114/114/57 115/115/57
f 115/115/58 116/116/58 113/113/58
f 117/117/59 118/118/59 119/119/59
f 119/119/60 120/120/60 117/117/60

o Tree124
v 34.0007 3.84505 10.0
v 29.0007 3.84505 10.0
v 29.0007 3.84505 0.0
v 34.0007 3.84505 0.0
v 31.5007 6.34505 10.0
v 31.5007 1.34505 10.0
v 31.5007 1.34505 4.76837e-007
v 31.5007 6.34505 4.76837e-007

vt 0.999501 0.9995 0.5
vt 0.000499964 0.999501 0.5
vt 0.000499517 0.000499606 0.5
vt 0.9995 0.000499487 0.5
vt 0.999501 0.9995 0.5
vt 0.000499964 0.999501 0.5
vt 0.000499517 0.000499606 0.5
vt 0.9995 0.000499487 0.5

vn 0.0 -1.0 0.0
vn 0.0 -1.0 0.0
vn 1.0 0.0 0.0
vn 1.0 0.0 0.0

f 121/121/61 122/122/61 123/123/61
f 123/123/62 124/124/62 121/121/62
f 125/125/63 126/126/63 127/127/63
f 127/127/64 128/128/64 125/125/64

o Tree125
v -18.7344 -3.94586 10.0
v -23.7344 -3.94586 10.0
v -23.7344 -3.94586 0.0
v -18.7344 -3.94586 0.0
v -21.2344 -1.44586 10.0
v -21.2344 -6.44586 10.0
v -21.2344 -6.44586 4.76837e-007
v -21.2344 -1.44586 4.76837e-007

vt 0.999501 0.9995 0.5
vt 0.000499964 0.999501 0.5
vt 0.000499517 0.000499606 0.5
vt 0.9995 0.000499487 0.5
vt 0.999501 0.9995 0.5
vt 0.000499964 0.999501 0.5
vt 0.000499517 0.000499606 0.5
vt 0.9995 0.000499487 0.5

vn 0.0 -1.0 0.0
vn 0.0 -1.0 0.0
vn 1.0 0.0 0.0
vn 1.0 0.0 0.0

f 129/129/65 130/130/65 131/131/65
f 131/131/66 132/132/66 129/129/66
f 133/133/67 134/134/67 135/135/67
f 135/135/68 136/136/68 133/133/68

o Tree128
v 1.7268 4.76862 10.0
v -3.2732 4.76862 10.0
v -3.2732 4.76862 0.0
v 1.7268 4.76862 0.0
v -0.773203 7.26862 10.0
v -0.773203 2.26862 10.0
v -0.773203 2.26862 4.76837e-007
v -0.773203 7.26862 4.76837e-007

vt 0.999501 0.9995 0.5
vt 0.000499964 0.999501 0.5
vt 0.000499517 0.000499606 0.5
vt 0.9995 0.000499487 0.5
vt 0.999501 0.9995 0.5
vt 0.000499964 0.999501 0.5
vt 0.000499517 0.000499606 0.5
vt 0.9995 0.000499487 0.5

vn 0.0 -1.0 0.0
vn 0.0 -1.0 0.0
vn 1.0 0.0 0.0
vn 1.0 0.0 0.0

f 137/137/69 138/138/69 139/139/69
f 139/139/70 140/140/70 137/137/70
f 141/141/71 142/142/71 143/143/71
f 143/143/72 144/144/72 141/141/72
