# -----------------
# Start of obj file
o Box02
v -68.6444 -338.799 0.0
v 31.3556 -338.799 0.0
v -68.6444 261.201 0.0
v 31.3556 261.201 0.0
v -68.6444 -338.799 1.0
v 31.3556 -338.799 1.0
v -68.6444 261.201 1.0
v 31.3556 261.201 1.0
v -427.277 259.675 0.0
v 472.723 259.675 0.0
v -427.277 359.675 0.0
v 472.723 359.675 0.0
v -427.277 259.675 1.0
v 472.723 259.675 1.0
v -427.277 359.675 1.0
v 472.723 359.675 1.0

vt 0.444444 0.0704922 0.5
vt 0.555556 0.0704922 0.5
vt 0.444444 0.929508 0.5
vt 0.555556 0.929508 0.5
vt 0.444444 0.0704922 1.5
vt 0.555556 0.0704922 1.5
vt 0.444444 0.929508 1.5
vt 0.555556 0.929508 1.5
vt 0.0459641 0.927323 0.5
vt 1.04596 0.927323 0.5
vt 0.0459641 1.07049 0.5
vt 1.04596 1.07049 0.5
vt 0.0459641 0.927323 1.5
vt 1.04596 0.927323 1.5
vt 0.0459641 1.07049 1.5
vt 1.04596 1.07049 1.5
vt 0.00766284 0.132184 0.5
vt 0.304598 0.128352 0.5
vt 0.0 1.0 0.5
vt 0.296935 0.996169 0.5
vt 0.311321 0.165727 0.5
vt 0.623545 0.165727 0.5
vt 0.311321 0.997108 0.5
vt 0.623545 0.997108 0.5

vn 0.0 0.0 -1.0
vn 0.0 0.0 -1.0
vn 0.0 0.0 1.0
vn 0.0 0.0 1.0
vn 0.0 -1.0 0.0
vn 0.0 -1.0 0.0
vn 1.0 0.0 0.0
vn 1.0 0.0 0.0
vn 0.0 1.0 0.0
vn 0.0 1.0 0.0
vn -1.0 0.0 0.0
vn -1.0 0.0 0.0
vn 0.0 0.0 -1.0
vn 0.0 0.0 -1.0
vn 0.0 0.0 1.0
vn 0.0 0.0 1.0
vn 0.0 -1.0 0.0
vn 0.0 -1.0 0.0
vn 1.0 0.0 0.0
vn 1.0 0.0 0.0
vn 0.0 1.0 0.0
vn 0.0 1.0 0.0
vn -1.0 0.0 0.0
vn -1.0 0.0 0.0

f 1/1/1 3/3/1 4/4/1
f 4/4/2 2/2/2 1/1/2
f 5/17/3 6/18/3 8/20/3
f 8/20/4 7/19/4 5/17/4
f 1/1/5 2/2/5 6/6/5
f 6/6/6 5/5/6 1/1/6
f 2/2/7 4/4/7 8/8/7
f 8/8/8 6/6/8 2/2/8
f 4/4/9 3/3/9 7/7/9
f 7/7/10 8/8/10 4/4/10
f 3/3/11 1/1/11 5/5/11
f 5/5/12 7/7/12 3/3/12
f 9/9/13 11/11/13 12/12/13
f 12/12/14 10/10/14 9/9/14
f 13/21/15 14/22/15 16/24/15
f 16/24/16 15/23/16 13/21/16
f 9/9/17 10/10/17 14/14/17
f 14/14/18 13/13/18 9/9/18
f 10/10/19 12/12/19 16/16/19
f 16/16/20 14/14/20 10/10/20
f 12/12/21 11/11/21 15/15/21
f 15/15/22 16/16/22 12/12/22
f 11/11/23 9/9/23 13/13/23
f 13/13/24 15/15/24 11/11/24

# end of obj file
# ---------------


Copy and paste the following lines into a
text editor, and save them as a .obj file.

# -----------------
# Start of obj file
o Box02
v -68.6444 -338.799 0.0
v 31.3556 -338.799 0.0
v -68.6444 261.201 0.0
v 31.3556 261.201 0.0
v -68.6444 -338.799 1.0
v 31.3556 -338.799 1.0
v -68.6444 261.201 1.0
v 31.3556 261.201 1.0
v -427.277 259.675 0.0
v 472.723 259.675 0.0
v -427.277 359.675 0.0
v 472.723 359.675 0.0
v -427.277 259.675 1.0
v 472.723 259.675 1.0
v -427.277 359.675 1.0
v 472.723 359.675 1.0

vt 0.444444 0.0704922 0.5
vt 0.555556 0.0704922 0.5
vt 0.444444 0.929508 0.5
vt 0.555556 0.929508 0.5
vt 0.444444 0.0704922 1.5
vt 0.555556 0.0704922 1.5
vt 0.444444 0.929508 1.5
vt 0.555556 0.929508 1.5
vt 0.0459641 0.927323 0.5
vt 1.04596 0.927323 0.5
vt 0.0459641 1.07049 0.5
vt 1.04596 1.07049 0.5
vt 0.0459641 0.927323 1.5
vt 1.04596 0.927323 1.5
vt 0.0459641 1.07049 1.5
vt 1.04596 1.07049 1.5
vt 0.00766284 0.132184 0.5
vt 0.304598 0.128352 0.5
vt 0.0 1.0 0.5
vt 0.312261 0.996169 0.5
vt 0.317518 0.238974 0.5
vt 0.617348 0.238974 0.5
vt 0.315603 0.996658 0.5
vt 0.615432 0.996658 0.5

vn 0.0 0.0 -1.0
vn 0.0 0.0 -1.0
vn 0.0 0.0 1.0
vn 0.0 0.0 1.0
vn 0.0 -1.0 0.0
vn 0.0 -1.0 0.0
vn 1.0 0.0 0.0
vn 1.0 0.0 0.0
vn 0.0 1.0 0.0
vn 0.0 1.0 0.0
vn -1.0 0.0 0.0
vn -1.0 0.0 0.0
vn 0.0 0.0 -1.0
vn 0.0 0.0 -1.0
vn 0.0 0.0 1.0
vn 0.0 0.0 1.0
vn 0.0 -1.0 0.0
vn 0.0 -1.0 0.0
vn 1.0 0.0 0.0
vn 1.0 0.0 0.0
vn 0.0 1.0 0.0
vn 0.0 1.0 0.0
vn -1.0 0.0 0.0
vn -1.0 0.0 0.0

f 1/1/1 3/3/1 4/4/1
f 4/4/2 2/2/2 1/1/2
f 5/17/3 6/18/3 8/20/3
f 8/20/4 7/19/4 5/17/4
f 1/1/5 2/2/5 6/6/5
f 6/6/6 5/5/6 1/1/6
f 2/2/7 4/4/7 8/8/7
f 8/8/8 6/6/8 2/2/8
f 4/4/9 3/3/9 7/7/9
f 7/7/10 8/8/10 4/4/10
f 3/3/11 1/1/11 5/5/11
f 5/5/12 7/7/12 3/3/12
f 9/9/13 11/11/13 12/12/13
f 12/12/14 10/10/14 9/9/14
f 13/21/15 14/22/15 16/24/15
f 16/24/16 15/23/16 13/21/16
f 9/9/17 10/10/17 14/14/17
f 14/14/18 13/13/18 9/9/18
f 10/10/19 12/12/19 16/16/19
f 16/16/20 14/14/20 10/10/20
f 12/12/21 11/11/21 15/15/21
f 15/15/22 16/16/22 12/12/22
f 11/11/23 9/9/23 13/13/23
f 13/13/24 15/15/24 11/11/24

# end of obj file
# ---------------


